<svg width="64" height="64" viewBox="0 0 64 64" fill="none" xmlns="http://www.w3.org/2000/svg">
<path d="M42.246 6.33333C40.6687 6.33333 39.14 6.94167 37.9573 8.124L20.3307 25.7507C19.8293 26.252 19.4267 26.8213 19.1227 27.4213L19.1013 27.464C18.9973 27.6853 18.9147 27.9173 18.8507 28.1547C18.176 30.7093 19.6827 33.376 22.336 34.1813L30.016 36.5013C30.2987 36.584 30.5813 36.6213 30.864 36.6213C32.9067 36.6213 34.784 35.592 35.8827 33.9147L53.7547 6.04267C55.784 2.984 53.664 0.167999 50.1227 0.167999H20.48C12.8 0.167999 6.496 6.472 6.496 14.152V43.784C6.496 51.464 12.8 57.768 20.48 57.768H47.5307C55.2107 57.768 61.5147 51.464 61.5147 43.784V17.0507C61.5147 12.8213 58.7413 8.94667 54.8107 7.21333L47.0827 3.82133C45.696 3.14667 43.9253 3.648 42.9227 5.03467C42.4213 5.88267 42.246 6.33333 42.246 6.33333Z" fill="#6750A4"/>
</svg>
