<svg width="64" height="64" viewBox="0 0 64 64" fill="none" xmlns="http://www.w3.org/2000/svg">
<rect width="64" height="64" rx="12" fill="url(#paint0_linear_1_2)"/>
<path d="M32 12C26.4772 12 22 16.4772 22 22V26C22 27.1046 22.8954 28 24 28H28C29.1046 28 30 27.1046 30 26V22C30 20.8954 30.8954 20 32 20C33.1046 20 34 20.8954 34 22V30C34 33.3137 31.3137 36 28 36H20" stroke="white" stroke-width="3.5" stroke-linecap="round" stroke-linejoin="round"/>
<path d="M32 52C37.5228 52 42 47.5228 42 42V38C42 36.8954 41.1046 36 40 36H36C34.8954 36 34 36.8954 34 38V42C34 43.1046 33.1046 44 32 44C30.8954 44 30 43.1046 30 42V34C30 30.6863 32.6863 28 36 28H44" stroke="white" stroke-width="3.5" stroke-linecap="round" stroke-linejoin="round"/>
<defs>
<linearGradient id="paint0_linear_1_2" x1="32" y1="0" x2="32" y2="64" gradientUnits="userSpaceOnUse">
<stop stop-color="#6750A4"/>
<stop offset="1" stop-color="#4F378B"/>
</linearGradient>
</defs>
</svg>
