<svg width="48" height="48" viewBox="0 0 48 48" fill="none" xmlns="http://www.w3.org/2000/svg">
<rect width="48" height="48" rx="12" fill="hsl(258 92% 66%)"/>
<path d="M34 29H31.25V26.25H28.5V23.5H25.75V20.75H22.25V23.5H19.5V26.25H16.75V29H14V17.25C14 16.8522 14.158 16.4706 14.4393 16.1893C14.7206 15.908 15.1022 15.75 15.5 15.75H32.5C32.8978 15.75 33.2794 15.908 33.5607 16.1893C33.842 16.4706 34 16.8522 34 17.25V29Z" fill="white"/>
<path d="M28.5 29H25.75V31.25H22.25V29H19.5V31.25H16.75C16.75 31.6478 16.908 32.0294 17.1893 32.3107C17.4706 32.592 17.8522 32.75 18.25 32.75H29.75C30.1478 32.75 30.5294 32.592 30.8107 32.3107C31.092 32.0294 31.25 31.6478 31.25 31.25V29H28.5Z" fill="white"/>
</svg>
